<svg xmlns="http://www.w3.org/2000/svg" viewBox="0 0 96 96">
  <!-- Favicon variant of the Master-Kids mark: white rounded tile so the navy
       cap stays visible in dark browser themes. Mark = brand/logo-icon.svg. -->
  <rect width="96" height="96" rx="22" fill="#F8FAFC"/>
  <g transform="translate(9.6 9.6) scale(0.8)">
    <path d="M10 60 L46 52 L46 86 L10 79 Z" fill="#1F5FA8"/>
    <path d="M86 60 L50 52 L50 86 L86 79 Z" fill="#159A93"/>
    <path d="M16 62.5 L40 57.5" stroke="#EAF1F8" stroke-width="3.4" stroke-linecap="round" fill="none"/>
    <path d="M16 69.5 L40 64.5" stroke="#EAF1F8" stroke-width="3.4" stroke-linecap="round" fill="none"/>
    <path d="M56 57.5 L80 62.5" stroke="#EAF1F8" stroke-width="3.4" stroke-linecap="round" fill="none"/>
    <path d="M56 64.5 L80 69.5" stroke="#EAF1F8" stroke-width="3.4" stroke-linecap="round" fill="none"/>
    <path d="M48 6 L92 24 L48 42 L4 24 Z" fill="#10243F"/>
    <path d="M27 32.5 L27 43 Q27 49.5 48 49.5 Q69 49.5 69 43 L69 32.5 L48 41 Z" fill="#10243F"/>
    <line x1="78" y1="27.5" x2="78" y2="45" stroke="#F2A93B" stroke-width="3.2" stroke-linecap="round"/>
    <circle cx="78" cy="48.5" r="4.2" fill="#F2A93B"/>
  </g>
</svg>
